<?xml version="1.0" encoding="UTF-8" standalone="no"?>
<!-- Uploaded to: SVG Repo, www.svgrepo.com, Generator: SVG Repo Mixer Tools -->

<svg
   width="787.03467"
   height="779.79016"
   viewBox="0 0 35.41656 35.090557"
   aria-hidden="true"
   role="img"
   class="iconify iconify--twemoji"
   preserveAspectRatio="xMidYMid"
   version="1.1"
   id="svg2"
   sodipodi:docname="letter-q.svg"
   inkscape:version="1.4 (86a8ad7, 2024-10-11)"
   xmlns:inkscape="http://www.inkscape.org/namespaces/inkscape"
   xmlns:sodipodi="http://sodipodi.sourceforge.net/DTD/sodipodi-0.dtd"
   xmlns="http://www.w3.org/2000/svg"
   xmlns:svg="http://www.w3.org/2000/svg">
  <defs
     id="defs2" />
  <sodipodi:namedview
     id="namedview2"
     pagecolor="#ffffff"
     bordercolor="#000000"
     borderopacity="0.25"
     inkscape:showpageshadow="2"
     inkscape:pageopacity="0.0"
     inkscape:pagecheckerboard="0"
     inkscape:deskcolor="#d1d1d1"
     inkscape:zoom="0.96625"
     inkscape:cx="429.49547"
     inkscape:cy="378.26649"
     inkscape:window-width="1920"
     inkscape:window-height="991"
     inkscape:window-x="-9"
     inkscape:window-y="-9"
     inkscape:window-maximized="1"
     inkscape:current-layer="svg2" />
  <path
     fill="#3B88C3"
     d="m 34.940165,30.821076 a 3.8293079,3.7930853 0 0 1 -3.829309,3.793086 H 4.3057018 A 3.8293079,3.7930853 0 0 1 0.476394,30.821076 V 4.2694793 A 3.8293079,3.7930853 0 0 1 4.3057018,0.476394 H 31.110856 a 3.8293079,3.7930853 0 0 1 3.829309,3.7930853 z"
     id="path1"
     style="fill:#c93535;fill-opacity:1;stroke:#3951b5;stroke-width:0.952788;stroke-opacity:0.950935" />
  <path
     fill="#ffffff"
     d="m 23.167279,27.529992 c -1.519,0.868 -3.348,1.364 -5.457,1.364 -6.294,0 -10.6659998,-4.992 -10.6659998,-11.41 0,-6.449 4.3409998,-11.41 10.6659998,-11.41 6.232,0 10.666,5.116 10.666,11.41 0,2.728 -0.713,5.209 -2.078,7.162 l 1.768,1.52 c 0.59,0.527 1.086,1.023 1.086,1.892 0,1.085 -1.086,1.953 -2.139,1.953 -0.684,0 -1.24,-0.279 -2.078,-0.992 z m -0.371,-6.077 c 0.526,-1.179 0.744,-2.542 0.744,-3.969 0,-3.689 -1.954,-7.131 -5.83,-7.131 -3.876,0 -5.829,3.379 -5.829,7.131 0,3.782 1.891,7.132 5.829,7.132 0.713,0 1.365,-0.094 1.984,-0.218 l -1.116,-1.085 c -0.341,-0.311 -0.589,-0.807 -0.589,-1.24 0,-1.209 0.838,-2.232 2.108,-2.232 0.435,0 0.806,0.155 1.179,0.403 z"
     id="path2" />
</svg>
